<mxfile host="app.diagrams.net" modified="2021-11-14T16:31:18.320Z" agent="5.0 (Windows NT 10.0; Win64; x64) AppleWebKit/537.36 (KHTML, like Gecko) Chrome/95.0.4638.69 Safari/537.36 Edg/95.0.1020.44" etag="JwceBJBPAEWbMq8-lhrq" version="15.7.3" type="github">
  <diagram name="Page-1" id="58cdce13-f638-feb5-8d6f-7d28b1aa9fa0">
    <mxGraphModel dx="195.29" dy="95.71" grid="1" gridSize="10" guides="1" tooltips="1" connect="1" arrows="1" fold="1" page="1" pageScale="1" pageWidth="1100" pageHeight="850" background="none" math="0" shadow="0">
      <root>
        <mxCell id="0" />
        <mxCell id="1" parent="0" />
        <mxCell id="382b91b5511bd0f7-1" value="" style="ellipse;html=1;shape=startState;fillColor=#000000;strokeColor=#ff0000;rounded=1;shadow=0;comic=0;labelBackgroundColor=none;fontFamily=Verdana;fontSize=12;fontColor=#000000;align=center;direction=south;" parent="1" vertex="1">
          <mxGeometry x="130" y="135" width="30" height="30" as="geometry" />
        </mxCell>
        <mxCell id="382b91b5511bd0f7-5" value="editor" style="rounded=1;whiteSpace=wrap;html=1;arcSize=24;fillColor=#ffffc0;strokeColor=#ff0000;shadow=0;comic=0;labelBackgroundColor=none;fontFamily=Verdana;fontSize=12;fontColor=#000000;align=center;" parent="1" vertex="1">
          <mxGeometry x="230" y="240" width="120" height="60" as="geometry" />
        </mxCell>
        <mxCell id="382b91b5511bd0f7-6" value="main ui" style="rounded=1;whiteSpace=wrap;html=1;arcSize=24;fillColor=#ffffc0;strokeColor=#ff0000;shadow=0;comic=0;labelBackgroundColor=none;fontFamily=Verdana;fontSize=12;fontColor=#000000;align=center;" parent="1" vertex="1">
          <mxGeometry x="230" y="120" width="120" height="60" as="geometry" />
        </mxCell>
        <mxCell id="382b91b5511bd0f7-7" value="login" style="rounded=1;whiteSpace=wrap;html=1;arcSize=24;fillColor=#ffffc0;strokeColor=#ff0000;shadow=0;comic=0;labelBackgroundColor=none;fontFamily=Verdana;fontSize=12;fontColor=#000000;align=center;" parent="1" vertex="1">
          <mxGeometry x="730" y="120" width="120" height="60" as="geometry" />
        </mxCell>
        <mxCell id="382b91b5511bd0f7-9" value="main ui(loged)" style="rounded=1;whiteSpace=wrap;html=1;arcSize=24;fillColor=#ffffc0;strokeColor=#ff0000;shadow=0;comic=0;labelBackgroundColor=none;fontFamily=Verdana;fontSize=12;fontColor=#000000;align=center;" parent="1" vertex="1">
          <mxGeometry x="480.00000000000006" y="240" width="120" height="60" as="geometry" />
        </mxCell>
        <mxCell id="382b91b5511bd0f7-10" value="register" style="rounded=1;whiteSpace=wrap;html=1;arcSize=24;fillColor=#ffffc0;strokeColor=#ff0000;shadow=0;comic=0;labelBackgroundColor=none;fontFamily=Verdana;fontSize=12;fontColor=#000000;align=center;" parent="1" vertex="1">
          <mxGeometry x="480" y="120" width="120" height="60" as="geometry" />
        </mxCell>
        <mxCell id="0LlqZiCbWUSW9-M1OGxo-4" value="compile &amp;amp; run" style="rounded=1;whiteSpace=wrap;html=1;arcSize=40;fontColor=#000000;fillColor=#ffffc0;strokeColor=#ff0000;fontFamily=Verdana;" vertex="1" parent="1">
          <mxGeometry x="230" y="360" width="120" height="60" as="geometry" />
        </mxCell>
        <mxCell id="0LlqZiCbWUSW9-M1OGxo-13" value="" style="html=1;verticalAlign=bottom;endArrow=block;rounded=0;fontFamily=Verdana;" edge="1" parent="1">
          <mxGeometry width="80" relative="1" as="geometry">
            <mxPoint x="150" y="149.29" as="sourcePoint" />
            <mxPoint x="230" y="149.29" as="targetPoint" />
          </mxGeometry>
        </mxCell>
        <mxCell id="0LlqZiCbWUSW9-M1OGxo-16" value="select register" style="html=1;verticalAlign=bottom;endArrow=block;rounded=0;fontFamily=Verdana;entryX=0;entryY=0.5;entryDx=0;entryDy=0;" edge="1" parent="1" target="382b91b5511bd0f7-10">
          <mxGeometry width="80" relative="1" as="geometry">
            <mxPoint x="350" y="149.29" as="sourcePoint" />
            <mxPoint x="430" y="149.29" as="targetPoint" />
          </mxGeometry>
        </mxCell>
        <mxCell id="0LlqZiCbWUSW9-M1OGxo-17" value="&lt;span style=&quot;color: rgb(24 , 32 , 38) ; font-family: , &amp;#34;blinkmacsystemfont&amp;#34; , &amp;#34;segoe ui&amp;#34; , &amp;#34;roboto&amp;#34; , &amp;#34;oxygen&amp;#34; , &amp;#34;ubuntu&amp;#34; , &amp;#34;cantarell&amp;#34; , &amp;#34;open sans&amp;#34; , &amp;#34;helvetica neue&amp;#34; , &amp;#34;icons16&amp;#34; , sans-serif ; font-size: 14px&quot;&gt;register complete&lt;/span&gt;" style="html=1;verticalAlign=bottom;endArrow=block;rounded=0;fontFamily=Verdana;entryX=0;entryY=0.5;entryDx=0;entryDy=0;" edge="1" parent="1" target="382b91b5511bd0f7-7">
          <mxGeometry x="0.0769" y="10" width="80" relative="1" as="geometry">
            <mxPoint x="600" y="150" as="sourcePoint" />
            <mxPoint x="680" y="150" as="targetPoint" />
            <mxPoint as="offset" />
          </mxGeometry>
        </mxCell>
        <mxCell id="0LlqZiCbWUSW9-M1OGxo-18" value="edit" style="html=1;verticalAlign=bottom;endArrow=block;rounded=0;fontFamily=Verdana;entryX=0.5;entryY=0;entryDx=0;entryDy=0;exitX=0.5;exitY=1;exitDx=0;exitDy=0;" edge="1" parent="1" source="382b91b5511bd0f7-6" target="382b91b5511bd0f7-5">
          <mxGeometry x="0.3333" y="-40" width="80" relative="1" as="geometry">
            <mxPoint x="290" y="200" as="sourcePoint" />
            <mxPoint x="370" y="200" as="targetPoint" />
            <mxPoint as="offset" />
          </mxGeometry>
        </mxCell>
        <mxCell id="0LlqZiCbWUSW9-M1OGxo-21" value="select login" style="html=1;verticalAlign=bottom;endArrow=block;rounded=0;fontFamily=Verdana;entryX=0.5;entryY=0;entryDx=0;entryDy=0;exitX=0.5;exitY=0;exitDx=0;exitDy=0;" edge="1" parent="1" source="382b91b5511bd0f7-6" target="382b91b5511bd0f7-7">
          <mxGeometry x="-0.0363" y="-39" width="80" relative="1" as="geometry">
            <mxPoint x="290" y="59.99999999999996" as="sourcePoint" />
            <mxPoint x="420" y="60.709999999999994" as="targetPoint" />
            <Array as="points">
              <mxPoint x="290" y="60" />
              <mxPoint x="790" y="60" />
            </Array>
            <mxPoint x="1" as="offset" />
          </mxGeometry>
        </mxCell>
        <mxCell id="0LlqZiCbWUSW9-M1OGxo-22" value="login complete" style="html=1;verticalAlign=bottom;endArrow=block;rounded=0;fontFamily=Verdana;entryX=1;entryY=0.5;entryDx=0;entryDy=0;exitX=0.5;exitY=1;exitDx=0;exitDy=0;" edge="1" parent="1" target="382b91b5511bd0f7-9">
          <mxGeometry x="0.1429" y="-10" width="80" relative="1" as="geometry">
            <mxPoint x="790" y="180" as="sourcePoint" />
            <mxPoint x="790" y="240" as="targetPoint" />
            <mxPoint as="offset" />
            <Array as="points">
              <mxPoint x="790" y="270" />
            </Array>
          </mxGeometry>
        </mxCell>
        <mxCell id="0LlqZiCbWUSW9-M1OGxo-23" value="edit" style="html=1;verticalAlign=bottom;endArrow=block;rounded=0;fontFamily=Verdana;exitX=0;exitY=0.5;exitDx=0;exitDy=0;" edge="1" parent="1" source="382b91b5511bd0f7-9">
          <mxGeometry width="80" relative="1" as="geometry">
            <mxPoint x="470" y="269.28999999999996" as="sourcePoint" />
            <mxPoint x="350" y="269.28999999999996" as="targetPoint" />
          </mxGeometry>
        </mxCell>
        <mxCell id="0LlqZiCbWUSW9-M1OGxo-25" value="run input" style="html=1;verticalAlign=bottom;endArrow=block;rounded=0;fontFamily=Verdana;exitX=0.5;exitY=1;exitDx=0;exitDy=0;entryX=0.5;entryY=0;entryDx=0;entryDy=0;" edge="1" parent="1" target="0LlqZiCbWUSW9-M1OGxo-4">
          <mxGeometry x="0.3333" y="-40" width="80" relative="1" as="geometry">
            <mxPoint x="290" y="300" as="sourcePoint" />
            <mxPoint x="400" y="320" as="targetPoint" />
            <mxPoint as="offset" />
          </mxGeometry>
        </mxCell>
        <mxCell id="0LlqZiCbWUSW9-M1OGxo-26" value="return output" style="html=1;verticalAlign=bottom;endArrow=block;rounded=0;fontFamily=Verdana;exitX=0;exitY=0.5;exitDx=0;exitDy=0;entryX=0;entryY=0.5;entryDx=0;entryDy=0;" edge="1" parent="1" source="0LlqZiCbWUSW9-M1OGxo-4" target="382b91b5511bd0f7-5">
          <mxGeometry x="-0.0769" y="50" width="80" relative="1" as="geometry">
            <mxPoint x="290" y="420" as="sourcePoint" />
            <mxPoint x="150" y="280" as="targetPoint" />
            <mxPoint as="offset" />
            <Array as="points">
              <mxPoint x="160" y="390" />
              <mxPoint x="160" y="270" />
            </Array>
          </mxGeometry>
        </mxCell>
        <mxCell id="0LlqZiCbWUSW9-M1OGxo-27" value="OJ" style="rounded=1;whiteSpace=wrap;html=1;arcSize=40;fontColor=#000000;fillColor=#ffffc0;strokeColor=#ff0000;fontFamily=Verdana;" vertex="1" parent="1">
          <mxGeometry x="480" y="360" width="120" height="60" as="geometry" />
        </mxCell>
        <mxCell id="0LlqZiCbWUSW9-M1OGxo-29" value="view" style="html=1;verticalAlign=bottom;endArrow=block;rounded=0;fontFamily=Verdana;entryX=0.5;entryY=0;entryDx=0;entryDy=0;exitX=0.5;exitY=1;exitDx=0;exitDy=0;" edge="1" parent="1">
          <mxGeometry x="0.3333" y="20" width="80" relative="1" as="geometry">
            <mxPoint x="570" y="300" as="sourcePoint" />
            <mxPoint x="570" y="360" as="targetPoint" />
            <mxPoint as="offset" />
          </mxGeometry>
        </mxCell>
        <mxCell id="0LlqZiCbWUSW9-M1OGxo-30" value="display" style="html=1;verticalAlign=bottom;endArrow=block;rounded=0;fontFamily=Verdana;" edge="1" parent="1">
          <mxGeometry x="-0.6667" y="30" width="80" relative="1" as="geometry">
            <mxPoint x="520" y="360" as="sourcePoint" />
            <mxPoint x="520" y="300" as="targetPoint" />
            <mxPoint as="offset" />
          </mxGeometry>
        </mxCell>
      </root>
    </mxGraphModel>
  </diagram>
</mxfile>
